<svg height="511pt" viewBox="-6 0 511 511.9988" width="511pt" xmlns="http://www.w3.org/2000/svg"><path d="m322.488281 394.128906c-.800781-.09375-14.484375-1.875-24.746093-14.265625 3.03125-2.144531 5.929687-4.554687 8.644531-7.265625l117.59375-117.59375c12.273437 13.460938 25.234375 17.039063 33.097656 17.855469 4.101563.425781 7.753906-2.542969 8.207031-6.644531.449219-4.097656-2.519531-7.792969-6.613281-8.269532-.785156-.09375-13.925781-1.808593-24.109375-13.527343l45.941406-45.941407c25.871094-25.871093 25.871094-67.960937 0-93.832031l-72.648437-72.648437c-25.867188-25.871094-67.960938-25.871094-93.832031 0l-7.535157 7.535156c-9.363281-28.160156-33.308593-38.183594-45.558593-39.4882812-4.117188-.4414068-7.8125 2.5429692-8.25 6.6601562-.441407 4.121094 2.59375 7.460937 6.660156 8.253906 31.300781 6.125 34.78125 36.273438 34.910156 36.8125l-96.675781 96.675781c-10.652344-10.894531-23.625-15.46875-31.617188-16.320312-4.117187-.441406-7.816406 2.542969-8.253906 6.660156-.441406 4.121094 2.542969 7.816406 6.660156 8.253906.183594.019532 12.460938 1.507813 22.640625 11.976563l-47.097656 47.097656c-25.871094 25.871094-25.871094 67.964844 0 93.832031l72.648438 72.648438c4.785156 4.789062 10.128906 8.683594 15.824218 11.699219l-7.175781 7.175781c-14.34375 14.34375-37.6875 14.34375-52.03125 0l-48.140625-48.140625c-11.65625-11.660156-14.132812-29.804687-6.019531-44.132813 2.042969-3.601562.769531-8.179687-2.832031-10.222656-3.601563-2.039062-8.179688-.773437-10.222657 2.832032-7.769531 13.71875-8.636719 29.925781-3.238281 44.054687l-82.109375 82.109375c-21.480469 21.480469-21.480469 56.433594 0 77.917969 21.484375 21.484375 56.441406 21.484375 77.921875 0l7.957031-7.957031c2.929688-2.929688 2.929688-7.675782 0-10.605469-2.929687-2.929688-7.679687-2.929688-10.609375 0l-7.957031 7.957031c-15.632813 15.632812-41.070313 15.632812-56.703125 0-15.636719-15.636719-15.636719-41.074219 0-56.707031l79.179688-79.179688c1.242187 1.578125 55.136718 55.464844 56.703124 56.707031l-49.054687 49.054688c-2.929687 2.929688-2.929687 7.675781 0 10.605469 2.929687 2.929687 7.679687 2.929687 10.609375 0l51.972656-51.972657c18.507813 7.074219 40.285156 3.179688 55.179688-11.710937l11.949218-11.953125c13.460938 3.257812 27.75 2.261719 40.703126-2.984375 1.675781 2.238281 15.1875 20.761719 36.433593 21.902344 4.117188.21875 7.753907-2.546875 8.207031-6.644531.449219-4.097657-2.519531-7.796876-6.613281-8.269532zm-99.328125-32.140625-72.648437-72.648437c-20.019531-20.019532-20.019531-52.597656 0-72.617188l149.484375-149.484375c2.917968 5.53125 14.621094 25.171875 41.386718 29.742188 4.0625.695312 7.753907-2.542969 8.203126-6.644531.449218-4.097657-2.515626-7.792969-6.613282-8.273438-1.007812-.117188-22.371094-2.902344-31.703125-26.097656l13.363281-13.363282c20.019532-20.019531 52.59375-20.019531 72.617188.003907l72.648438 72.644531c20.019531 20.023438 20.019531 52.597656 0 72.621094l-174.121094 174.117187c-1.738282 1.742188-3.578125 3.320313-5.492188 4.757813-8.445312-17.410156-6.054687-46.96875-49.835937-54.640625-4.082031-.714844-7.816407 2.542969-8.253907 6.664062-.441406 4.117188 2.628907 7.292969 6.660157 8.253907 34.359375 8.175781 28.667969 31.492187 38.140625 46.910156-18.160156 6.5625-39.304688 2.585937-53.835938-11.945313zm0 0"/><path d="m320.835938 187.949219c-.839844-4.054688-4.808594-6.660157-8.867188-5.820313-1.484375.304688-6.980469 2.75-5.820312 8.863282.554687 2.933593-.96875 4.875-1.667969 5.578124-.703125.703126-2.65625 2.273438-5.578125 1.667969-4.058594-.839843-8.027344 1.765625-8.867188 5.824219-.839844 4.054688 1.769532 8.023438 5.824219 8.863281 6.992187 1.449219 14.175781-.699219 19.226563-5.75 5.046874-5.046875 7.199218-12.234375 5.75-19.226562zm0 0"/><path d="m260.601562 240.105469c.371094-.371094 1.175782-.882813 2.390626-.988281 6.148437-.546876 7.5-5.429688 7.5-7.5 0-4.144532-3.359376-7.5-7.5-7.5-4.910157 0-9.523438 1.910156-12.996094 5.382812-3.472656 3.46875-5.382813 8.085938-5.382813 12.992188 0 4.144531 3.359375 7.5 7.5 7.5 4.140625.003906 7.5-3.355469 7.5-7.5 0-1.21875.621094-2.015626.988281-2.386719zm0 0"/><path d="m339.527344 162.582031c4.140625 0 7.5-3.359375 7.5-7.5 0-1.21875.617187-2.019531.988281-2.386719.367187-.371093 1.175781-.882812 2.386719-.988281 6.148437-.546875 7.5-5.429687 7.5-7.5 0-4.144531-3.355469-7.503906-7.5-7.503906-4.910156 0-9.523438 1.914063-12.996094 5.382813-3.46875 3.472656-5.382812 8.085937-5.382812 12.996093 0 4.140625 3.359374 7.5 7.503906 7.5zm0 0"/><path d="m43.988281 434.878906c-9.269531 9.273438-9.269531 24.363282 0 33.632813 9.273438 9.273437 24.359375 9.273437 33.632813 0 9.273437-9.273438 9.273437-24.359375 0-33.632813-9.273438-9.269531-24.359375-9.269531-33.632813 0zm23.027344 23.027344c-3.425781 3.421875-8.996094 3.421875-12.417969 0-3.425781-3.425781-3.425781-8.996094 0-12.417969 3.421875-3.425781 8.992188-3.425781 12.417969 0 3.421875 3.421875 3.421875 8.992188 0 12.417969zm0 0"/></svg>